<?xml version="1.0" encoding="utf-8"?>
<!-- Generator: Adobe Illustrator 27.8.1, SVG Export Plug-In . SVG Version: 6.00 Build 0)  -->
<svg version="1.1" id="Layer_1" xmlns:svg="http://www.w3.org/2000/svg"
	 xmlns="http://www.w3.org/2000/svg" xmlns:xlink="http://www.w3.org/1999/xlink" x="0px" y="0px" viewBox="0 0 360 522"
	 style="enable-background:new 0 0 360 522;" xml:space="preserve">
<style type="text/css">
	.st0{fill:none;stroke:#000000;stroke-width:7.200000e-02;stroke-linecap:round;stroke-linejoin:round;stroke-miterlimit:11.3386;}
</style>
<g transform="translate(0 0) scale(1 1)">
</g>
<g>
	<g>
		<circle class="st0" cx="69.7" cy="77.9" r="4.6"/>
	</g>
	<g>
		<circle class="st0" cx="222.7" cy="86.6" r="4.6"/>
	</g>
	<g>
		<circle class="st0" cx="151.8" cy="183.8" r="4.6"/>
	</g>
	<g>
		<circle class="st0" cx="273.8" cy="201.4" r="4.6"/>
	</g>
	<g>
		<circle class="st0" cx="69.7" cy="126.2" r="4.6"/>
	</g>
	<g>
		<path class="st0" d="M332.3,41.1h-57.5"/>
		<path class="st0" d="M68.4,64.4l-48.5-0.1"/>
		<path class="st0" d="M298.7,267.5l35.3-61.3"/>
		<path class="st0" d="M255.3,245.7l39.2,22.6"/>
		<path class="st0" d="M155.8,232.3l50.4,0.1"/>
		<path class="st0" d="M273.4,40.1c-0.1-0.7-0.7-1.1-1.4-1.1"/>
		<path class="st0" d="M273.4,40.1c0.2,0.6,0.7,1,1.4,1"/>
		<path class="st0" d="M272,39h-48.4"/>
		<path class="st0" d="M68.4,64.4c0.8,0,1.4-0.6,1.4-1.4"/>
		<path class="st0" d="M71.2,30.3c-0.8,0-1.4,0.6-1.4,1.4"/>
		<path class="st0" d="M169.8,13.4h-47.6"/>
		<path class="st0" d="M171.2,30.5V14.8"/>
		<path class="st0" d="M220.8,31.9h-48.1"/>
		<path class="st0" d="M222.2,37.6v-4.3"/>
		<path class="st0" d="M69.8,31.8V63"/>
		<path class="st0" d="M119.5,30.3H71.2"/>
		<path class="st0" d="M120.8,14.9V29"/>
		<path class="st0" d="M119.5,30.3c0.8,0,1.4-0.6,1.4-1.4"/>
		<path class="st0" d="M122.3,13.5c-0.8,0-1.4,0.6-1.4,1.4"/>
		<path class="st0" d="M171.2,14.8c0-0.8-0.6-1.4-1.4-1.4"/>
		<path class="st0" d="M171.2,30.5c0,0.8,0.6,1.4,1.4,1.4"/>
		<path class="st0" d="M222.2,33.4c0-0.8-0.6-1.4-1.4-1.4"/>
		<path class="st0" d="M222.2,37.6c0,0.8,0.6,1.4,1.4,1.4"/>
		<path class="st0" d="M333.7,42.5c0-0.8-0.6-1.4-1.4-1.4"/>
		<path class="st0" d="M71,174.5h48.7"/>
		<path class="st0" d="M69.1,202.5l0.1-26.3"/>
		<path class="st0" d="M121.6,175.7c-0.3-0.7-1.1-1.2-1.9-1.2"/>
		<path class="st0" d="M154.8,231.9c0.3,0.2,0.6,0.4,1,0.4"/>
		<path class="st0" d="M294.5,268.3c1.5,0.4,3,0.1,4.2-0.9"/>
		<path class="st0" d="M18.7,154.4v48.1"/>
		<path class="st0" d="M18.6,65.6l0.1,40.5"/>
		<path class="st0" d="M333.7,42.5l0.3,163.6"/>
		<path class="st0" d="M69.1,206.4v-3.9"/>
		<path class="st0" d="M71,174.5c-1,0-1.7,0.8-1.7,1.7l0,0"/>
		<path class="st0" d="M67.3,208.3c1,0,1.9-0.8,1.9-1.9l0,0"/>
		<path class="st0" d="M18.7,206.4v-3.9"/>
		<path class="st0" d="M18.7,106v48.4"/>
		<path class="st0" d="M121.6,175.7l33.2,56.2"/>
		<path class="st0" d="M19.9,64.3c-0.7,0-1.3,0.6-1.3,1.3"/>
		<path class="st0" d="M20.6,208.3h46.7"/>
		<path class="st0" d="M206.2,232.3l49.1,13.4"/>
		<path class="st0" d="M18.7,206.4c0,1,0.8,1.9,1.9,1.9l0,0"/>
	</g>
</g>
<g transform="translate(0 0) scale(1 1)">
</g>
<g>
	<g>
		<circle class="st0" cx="282.8" cy="320" r="4.6"/>
	</g>
	<g>
		<circle class="st0" cx="129.8" cy="328.7" r="4.6"/>
	</g>
	<g>
		<circle class="st0" cx="200.8" cy="425.9" r="4.6"/>
	</g>
	<g>
		<circle class="st0" cx="78.7" cy="443.5" r="4.6"/>
	</g>
	<g>
		<circle class="st0" cx="282.8" cy="368.3" r="4.6"/>
	</g>
	<g>
		<path class="st0" d="M77.8,283.2H20.3"/>
		<path class="st0" d="M332.7,306.3l-48.5,0.1"/>
		<path class="st0" d="M18.6,448.2l35.3,61.3"/>
		<path class="st0" d="M58.1,510.4l39.2-22.6"/>
		<path class="st0" d="M146.3,474.4l50.4-0.1"/>
		<path class="st0" d="M80.5,281c-0.7,0-1.3,0.5-1.4,1.1"/>
		<path class="st0" d="M77.8,283.2c0.6,0,1.2-0.4,1.4-1"/>
		<path class="st0" d="M128.9,281.1H80.5"/>
		<path class="st0" d="M282.8,305c0,0.8,0.6,1.4,1.4,1.4"/>
		<path class="st0" d="M282.8,273.8c0-0.8-0.6-1.4-1.4-1.4"/>
		<path class="st0" d="M230.3,255.5h-47.6"/>
		<path class="st0" d="M181.3,256.9v15.6"/>
		<path class="st0" d="M179.9,274h-48.1"/>
		<path class="st0" d="M130.3,275.4v4.3"/>
		<path class="st0" d="M282.8,305v-31.2"/>
		<path class="st0" d="M281.4,272.4h-48.3"/>
		<path class="st0" d="M231.7,271v-14.1"/>
		<path class="st0" d="M231.7,271c0,0.8,0.6,1.4,1.4,1.4"/>
		<path class="st0" d="M231.7,256.9c0-0.8-0.6-1.4-1.4-1.4"/>
		<path class="st0" d="M182.7,255.5c-0.8,0-1.4,0.6-1.4,1.4"/>
		<path class="st0" d="M179.9,274c0.8,0,1.4-0.6,1.4-1.4"/>
		<path class="st0" d="M131.8,274c-0.8,0-1.4,0.6-1.4,1.4"/>
		<path class="st0" d="M128.9,281.1c0.8,0,1.4-0.6,1.4-1.4"/>
		<path class="st0" d="M20.3,283.2c-0.8,0-1.4,0.6-1.4,1.4"/>
		<path class="st0" d="M232.9,416.6h48.7"/>
		<path class="st0" d="M283.3,418.3l0.1,26.3"/>
		<path class="st0" d="M232.9,416.6c-0.8,0-1.6,0.5-1.9,1.2"/>
		<path class="st0" d="M196.7,474.3c0.4,0,0.7-0.1,1-0.4"/>
		<path class="st0" d="M53.9,509.5c1.2,0.9,2.7,1.3,4.2,0.9"/>
		<path class="st0" d="M333.8,444.6v-48.1"/>
		<path class="st0" d="M333.8,348.1l0.1-40.5"/>
		<path class="st0" d="M18.6,448.2l0.3-163.6"/>
		<path class="st0" d="M283.4,444.6v3.9"/>
		<path class="st0" d="M283.3,418.3L283.3,418.3c0-1-0.8-1.7-1.7-1.7"/>
		<path class="st0" d="M283.4,448.5L283.4,448.5c0,1,0.8,1.9,1.9,1.9"/>
		<path class="st0" d="M333.8,444.6v3.9"/>
		<path class="st0" d="M333.8,396.5v-48.4"/>
		<path class="st0" d="M197.7,473.9l33.2-56.2"/>
		<path class="st0" d="M334,307.6c0-0.7-0.6-1.3-1.3-1.3"/>
		<path class="st0" d="M285.3,450.3H332"/>
		<path class="st0" d="M97.2,487.8l49.1-13.4"/>
		<path class="st0" d="M331.9,450.3L331.9,450.3c1,0,1.9-0.8,1.9-1.9"/>
	</g>
</g>
</svg>
