<?xml version="1.0" encoding="utf-8"?>
<!-- Generator: Adobe Illustrator 27.8.1, SVG Export Plug-In . SVG Version: 6.00 Build 0)  -->
<svg version="1.1" id="Layer_1" xmlns:svg="http://www.w3.org/2000/svg"
	 xmlns="http://www.w3.org/2000/svg" xmlns:xlink="http://www.w3.org/1999/xlink" x="0px" y="0px" viewBox="0 0 337 273"
	 style="enable-background:new 0 0 337 273;" xml:space="preserve">
<style type="text/css">
	.st0{fill:none;stroke:#000000;stroke-width:7.200000e-02;stroke-linecap:round;stroke-linejoin:round;stroke-miterlimit:11.3386;}
</style>
<g transform="translate(0 0) scale(1 1)">
</g>
<g>
	<g>
		<circle class="st0" cx="60.7" cy="72.9" r="4.6"/>
	</g>
	<g>
		<circle class="st0" cx="213.7" cy="81.6" r="4.6"/>
	</g>
	<g>
		<circle class="st0" cx="142.8" cy="178.8" r="4.6"/>
	</g>
	<g>
		<circle class="st0" cx="264.8" cy="196.4" r="4.6"/>
	</g>
	<g>
		<circle class="st0" cx="60.7" cy="121.2" r="4.6"/>
	</g>
	<g>
		<path class="st0" d="M323.3,36.1h-57.5"/>
		<path class="st0" d="M59.4,59.4l-48.5-0.1"/>
		<path class="st0" d="M289.7,262.5l35.3-61.3"/>
		<path class="st0" d="M246.3,240.7l39.2,22.6"/>
		<path class="st0" d="M146.8,227.3l50.4,0.1"/>
		<path class="st0" d="M264.4,35.1c-0.1-0.7-0.7-1.1-1.4-1.1"/>
		<path class="st0" d="M264.4,35.1c0.2,0.6,0.7,1,1.4,1"/>
		<path class="st0" d="M263,34h-48.4"/>
		<path class="st0" d="M59.4,59.4c0.8,0,1.4-0.6,1.4-1.4"/>
		<path class="st0" d="M62.2,25.3c-0.8,0-1.4,0.6-1.4,1.4"/>
		<path class="st0" d="M160.8,8.4h-47.6"/>
		<path class="st0" d="M162.2,25.5V9.8"/>
		<path class="st0" d="M211.8,26.9h-48.1"/>
		<path class="st0" d="M213.2,32.6v-4.3"/>
		<path class="st0" d="M60.8,26.8V58"/>
		<path class="st0" d="M110.5,25.3H62.2"/>
		<path class="st0" d="M111.8,9.9V24"/>
		<path class="st0" d="M110.5,25.3c0.8,0,1.4-0.6,1.4-1.4"/>
		<path class="st0" d="M113.3,8.5c-0.8,0-1.4,0.6-1.4,1.4"/>
		<path class="st0" d="M162.2,9.8c0-0.8-0.6-1.4-1.4-1.4"/>
		<path class="st0" d="M162.2,25.5c0,0.8,0.6,1.4,1.4,1.4"/>
		<path class="st0" d="M213.2,28.4c0-0.8-0.6-1.4-1.4-1.4"/>
		<path class="st0" d="M213.2,32.6c0,0.8,0.6,1.4,1.4,1.4"/>
		<path class="st0" d="M324.7,37.5c0-0.8-0.6-1.4-1.4-1.4"/>
		<path class="st0" d="M62,169.5h48.7"/>
		<path class="st0" d="M60.1,197.5l0.1-26.3"/>
		<path class="st0" d="M112.6,170.7c-0.3-0.7-1.1-1.2-1.9-1.2"/>
		<path class="st0" d="M145.8,226.9c0.3,0.2,0.6,0.4,1,0.4"/>
		<path class="st0" d="M285.5,263.3c1.5,0.4,3,0.1,4.2-0.9"/>
		<path class="st0" d="M9.7,149.4v48.1"/>
		<path class="st0" d="M9.6,60.6l0.1,40.5"/>
		<path class="st0" d="M324.7,37.5l0.3,163.6"/>
		<path class="st0" d="M60.1,201.4v-3.9"/>
		<path class="st0" d="M62,169.5c-1,0-1.7,0.8-1.7,1.7l0,0"/>
		<path class="st0" d="M58.3,203.3c1,0,1.9-0.8,1.9-1.9l0,0"/>
		<path class="st0" d="M9.7,201.4v-3.9"/>
		<path class="st0" d="M9.7,101v48.4"/>
		<path class="st0" d="M112.6,170.7l33.2,56.2"/>
		<path class="st0" d="M10.9,59.3c-0.7,0-1.3,0.6-1.3,1.3"/>
		<path class="st0" d="M11.6,203.3h46.7"/>
		<path class="st0" d="M197.2,227.3l49.1,13.4"/>
		<path class="st0" d="M9.7,201.4c0,1,0.8,1.9,1.9,1.9l0,0"/>
	</g>
</g>
<g transform="translate(0 0) scale(1 1)">
</g>
</svg>
